<svg width="44" height="44" viewBox="0 0 44 44" fill="none" xmlns="http://www.w3.org/2000/svg">
<path d="M9.16663 34.8333C12.2042 34.8333 14.6666 32.3709 14.6666 29.3333C14.6666 26.2957 12.2042 23.8333 9.16663 23.8333C6.12906 23.8333 3.66663 26.2957 3.66663 29.3333C3.66663 32.3709 6.12906 34.8333 9.16663 34.8333Z" stroke="#2B417B" stroke-width="2.75" stroke-linecap="round" stroke-linejoin="round"/>
<path d="M34.8334 34.8333C37.8709 34.8333 40.3334 32.3709 40.3334 29.3333C40.3334 26.2957 37.8709 23.8333 34.8334 23.8333C31.7958 23.8333 29.3334 26.2957 29.3334 29.3333C29.3334 32.3709 31.7958 34.8333 34.8334 34.8333Z" stroke="#2B417B" stroke-width="2.75" stroke-linecap="round" stroke-linejoin="round"/>
<path d="M13.75 25.6666L21.0833 18.3333M13.75 25.6666H22.9167L30.25 18.3333H11L13.75 25.6666Z" stroke="#2B417B" stroke-width="2.75" stroke-linecap="round" stroke-linejoin="round"/>
<path d="M23.8334 11H27.5L30.25 16.5L33.9167 23.8333" stroke="#2B417B" stroke-width="2.75" stroke-linecap="round" stroke-linejoin="round"/>
</svg>
