<svg width="44" height="44" viewBox="0 0 44 44" fill="none" xmlns="http://www.w3.org/2000/svg">
<path d="M3.66669 36.6667C4.08317 37.2469 4.63464 37.7171 5.27346 38.0365C5.91229 38.3559 6.61928 38.515 7.33335 38.5C8.04743 38.515 8.75441 38.3559 9.39324 38.0365C10.0321 37.7171 10.5835 37.2469 11 36.6667C11.4165 36.0865 11.968 35.6163 12.6068 35.2969C13.2456 34.9775 13.9526 34.8184 14.6667 34.8334C15.3808 34.8184 16.0877 34.9775 16.7266 35.2969C17.3654 35.6163 17.9169 36.0865 18.3334 36.6667C18.7498 37.2469 19.3013 37.7171 19.9401 38.0365C20.579 38.3559 21.2859 38.515 22 38.5C22.7141 38.515 23.4211 38.3559 24.0599 38.0365C24.6987 37.7171 25.2502 37.2469 25.6667 36.6667C26.0832 36.0865 26.6346 35.6163 27.2735 35.2969C27.9123 34.9775 28.6193 34.8184 29.3334 34.8334C30.0474 34.8184 30.7544 34.9775 31.3932 35.2969C32.0321 35.6163 32.5835 36.0865 33 36.6667C33.4165 37.2469 33.968 37.7171 34.6068 38.0365C35.2456 38.3559 35.9526 38.515 36.6667 38.5C37.3808 38.515 38.0877 38.3559 38.7266 38.0365C39.3654 37.7171 39.9169 37.2469 40.3334 36.6667" stroke="#2B417B" stroke-width="2.75" stroke-linecap="round" stroke-linejoin="round"/>
<path d="M7.33333 33L5.5 27.5H38.5L36.6667 33" stroke="#2B417B" stroke-width="2.75" stroke-linecap="round" stroke-linejoin="round"/>
<path d="M20.1667 22H33L20.1667 5.5V22Z" stroke="#2B417B" stroke-width="2.75" stroke-linecap="round" stroke-linejoin="round"/>
<path d="M14.6667 12.8333L11 22" stroke="#2B417B" stroke-width="2.75" stroke-linecap="round" stroke-linejoin="round"/>
</svg>
