<svg width="44" height="44" viewBox="0 0 44 44" fill="none" xmlns="http://www.w3.org/2000/svg">
<path d="M22 20.1667V11M9.16667 31.1667H5.5V20.1667L9.16667 11H25.6667L33 20.1667H34.8333C35.8058 20.1667 36.7384 20.553 37.4261 21.2406C38.1137 21.9282 38.5 22.8609 38.5 23.8333V31.1667H34.8333H9.16667ZM27.5 31.1667H16.5H27.5ZM5.5 20.1667H33H5.5Z" stroke="#2B417B" stroke-width="2.75" stroke-linecap="round" stroke-linejoin="round"/>
<path d="M12.8334 34.8333C14.8584 34.8333 16.5 33.1917 16.5 31.1667C16.5 29.1416 14.8584 27.5 12.8334 27.5C10.8083 27.5 9.16669 29.1416 9.16669 31.1667C9.16669 33.1917 10.8083 34.8333 12.8334 34.8333Z" fill="white" stroke="#2B417B" stroke-width="2.75" stroke-linecap="round" stroke-linejoin="round"/>
<path d="M31.1667 34.8333C33.1917 34.8333 34.8333 33.1917 34.8333 31.1667C34.8333 29.1416 33.1917 27.5 31.1667 27.5C29.1416 27.5 27.5 29.1416 27.5 31.1667C27.5 33.1917 29.1416 34.8333 31.1667 34.8333Z" fill="white" stroke="#2B417B" stroke-width="2.75" stroke-linecap="round" stroke-linejoin="round"/>
</svg>
