<svg width="44" height="44" viewBox="0 0 44 44" fill="none" xmlns="http://www.w3.org/2000/svg">
<path d="M9.16667 22H5.5L22 5.5L38.5 22H34.8333" stroke="#2B417B" stroke-width="2.75" stroke-linecap="round" stroke-linejoin="round"/>
<path d="M9.16663 22V34.8333C9.16663 35.8058 9.55293 36.7384 10.2406 37.4261C10.9282 38.1137 11.8608 38.5 12.8333 38.5H31.1666C32.1391 38.5 33.0717 38.1137 33.7594 37.4261C34.447 36.7384 34.8333 35.8058 34.8333 34.8333V22" stroke="#2B417B" stroke-width="2.75" stroke-linecap="round" stroke-linejoin="round"/>
<path d="M16.5 38.5V27.5C16.5 26.5275 16.8863 25.5949 17.5739 24.9073C18.2616 24.2196 19.1942 23.8333 20.1667 23.8333H23.8333C24.8058 23.8333 25.7384 24.2196 26.4261 24.9073C27.1137 25.5949 27.5 26.5275 27.5 27.5V38.5" stroke="#2B417B" stroke-width="2.75" stroke-linecap="round" stroke-linejoin="round"/>
</svg>
