<svg width="44" height="44" viewBox="0 0 44 44" fill="none" xmlns="http://www.w3.org/2000/svg">
<path d="M27.5 9.16669V12.8334" stroke="#2B417B" stroke-width="2.75" stroke-linecap="round" stroke-linejoin="round"/>
<path d="M27.5 20.1667V23.8334" stroke="#2B417B" stroke-width="2.75" stroke-linecap="round" stroke-linejoin="round"/>
<path d="M27.5 31.1667V34.8334" stroke="#2B417B" stroke-width="2.75" stroke-linecap="round" stroke-linejoin="round"/>
<path d="M9.16667 9.16669H34.8333C35.8058 9.16669 36.7384 9.553 37.4261 10.2406C38.1137 10.9283 38.5 11.8609 38.5 12.8334V18.3334C37.5275 18.3334 36.5949 18.7197 35.9073 19.4073C35.2196 20.0949 34.8333 21.0276 34.8333 22C34.8333 22.9725 35.2196 23.9051 35.9073 24.5927C36.5949 25.2804 37.5275 25.6667 38.5 25.6667V31.1667C38.5 32.1391 38.1137 33.0718 37.4261 33.7594C36.7384 34.447 35.8058 34.8334 34.8333 34.8334H9.16667C8.19421 34.8334 7.26158 34.447 6.57394 33.7594C5.88631 33.0718 5.5 32.1391 5.5 31.1667V25.6667C6.47246 25.6667 7.40509 25.2804 8.09273 24.5927C8.78036 23.9051 9.16667 22.9725 9.16667 22C9.16667 21.0276 8.78036 20.0949 8.09273 19.4073C7.40509 18.7197 6.47246 18.3334 5.5 18.3334V12.8334C5.5 11.8609 5.88631 10.9283 6.57394 10.2406C7.26158 9.553 8.19421 9.16669 9.16667 9.16669" stroke="#2B417B" stroke-width="2.75" stroke-linecap="round" stroke-linejoin="round"/>
</svg>
